<?xml version="1.0" standalone="no"?><!DOCTYPE svg PUBLIC "-//W3C//DTD SVG 1.1//EN" "http://www.w3.org/Graphics/SVG/1.1/DTD/svg11.dtd"><svg t="1693534810589" class="icon" viewBox="0 0 1024 1024" version="1.1" xmlns="http://www.w3.org/2000/svg" p-id="1265" xmlns:xlink="http://www.w3.org/1999/xlink" width="81" height="81"><path d="M908.0832 159.0272A64.0512 64.0512 0 0 0 847.616 153.6l-193.3312 81.92a12.544 12.544 0 0 1-4.0448 0.9216 9.728 9.728 0 0 0-1.28 0h-0.9728a11.4688 11.4688 0 0 1-3.8912-0.9728l-222.1568-98.304a61.44 61.44 0 0 0-14.336-4.3008 24.7808 24.7808 0 0 0-11.6224-2.9184 25.6 25.6 0 0 0-11.6736 2.9184 65.28 65.28 0 0 0-14.336 4.4032l-215.04 95.8976a67.1744 67.1744 0 0 0-39.3728 61.44V849.92a67.072 67.072 0 0 0 31.6416 57.4976 63.744 63.744 0 0 0 62.3104 2.9184l184.32-91.4944a12.9024 12.9024 0 0 1 11.4688 0l215.7056 106.1376a64.0512 64.0512 0 0 0 55.7056 0.4608l223.2832-105.6256a67.4304 67.4304 0 0 0 38.0928-60.9792V215.4496a67.3792 67.3792 0 0 0-30.0032-56.4224zM186.8288 864.7168a12.6464 12.6464 0 0 1-12.544-0.6144 15.9232 15.9232 0 0 1-7.424-14.1824V294.7072a16.1792 16.1792 0 0 1 9.0112-14.7968l194.56-87.04v580.6592zM427.8784 773.12c-2.048-0.9728-4.1472-1.8432-6.2976-2.6624V193.024l201.7792 89.1392v587.1104z m459.008-14.0288a16.0768 16.0768 0 0 1-8.7552 14.6944l-203.5712 96.256V282.4192l193.0752-81.92a12.4928 12.4928 0 0 1 12.1856 1.1776 15.872 15.872 0 0 1 7.0656 13.7216z" fill="#659ae8" p-id="1266"></path></svg>