<?xml version="1.0" standalone="no"?><!DOCTYPE svg PUBLIC "-//W3C//DTD SVG 1.1//EN" "http://www.w3.org/Graphics/SVG/1.1/DTD/svg11.dtd"><svg t="1693535048766" class="icon" viewBox="0 0 1024 1024" version="1.1" xmlns="http://www.w3.org/2000/svg" p-id="1408" xmlns:xlink="http://www.w3.org/1999/xlink" width="81" height="81"><path d="M748.032 927.0272a60.7232 60.7232 0 0 1-40.96-15.9744L558.08 775.68a9.8816 9.8816 0 0 0-7.3728-2.6112 10.24 10.24 0 0 0-7.0144 3.584l-59.6992 71.2704a61.44 61.44 0 0 1-106.7008-25.9584l-42.6496-190.5152a10.24 10.24 0 0 0-6.6048-7.3216l-193.28-63.488a61.44 61.44 0 0 1-8.96-112.64l646.8608-333.7728a61.44 61.44 0 0 1 89.1392 58.9824L809.2672 870.4a60.7744 60.7744 0 0 1-38.4 52.2752 61.44 61.44 0 0 1-22.8352 4.352zM551.4752 721.92a60.5696 60.5696 0 0 1 40.96 15.9232l148.9408 135.3728a10.24 10.24 0 0 0 16.6912-6.656l52.6848-697.1904a10.24 10.24 0 0 0-14.592-9.6768L149.2992 493.568a10.24 10.24 0 0 0 1.4336 18.432l193.28 63.488a61.44 61.44 0 0 1 40.6016 44.8l42.6496 190.5152a10.24 10.24 0 0 0 17.4592 4.2496l59.6992-71.2704a60.672 60.672 0 0 1 42.8032-21.76zM137.5232 471.04z" fill="#659ae8" p-id="1409"></path><path d="M464.0768 719.6672a25.6 25.6 0 0 1-25.6-23.6032l-6.656-84.8384a76.2368 76.2368 0 0 1 19.968-57.4976l217.4976-235.1104a25.6 25.6 0 1 1 37.6832 34.6624L489.472 588.4928a24.9856 24.9856 0 0 0-6.5024 18.7392l6.656 84.8384a25.6 25.6 0 0 1-23.7056 27.5456z" fill="#659ae8" p-id="1410"></path></svg>