<svg class="icon" viewBox="0 0 1024 1024" xmlns="http://www.w3.org/2000/svg" width="81" height="81"><path d="M254.572 873.731c0 13.315 8.877 22.192 22.192 22.192h530.39c37.727 0 66.577-28.85 66.577-66.576V196.872c0-37.726-28.85-66.576-66.576-66.576H210.188c-37.727 0-66.577 28.85-66.577 66.576v632.475c0 13.315 8.877 22.192 22.192 22.192s22.193-8.877 22.193-22.192V196.872c0-13.315 8.876-22.192 22.192-22.192h596.967c13.315 0 22.192 8.877 22.192 22.192v632.475c0 13.315-8.877 22.192-22.192 22.192H276.764c-13.315 0-22.192 8.877-22.192 22.192z" fill="#659ae8"/><path d="M733.92 290.08c0-13.316-8.876-22.193-22.191-22.193s-22.192 8.877-22.192 22.192c0 106.522-82.111 195.29-184.195 195.29S321.148 398.82 321.148 290.08c0-13.315-8.877-22.192-22.192-22.192s-22.192 8.877-22.192 22.192c0 130.933 102.083 239.675 228.578 239.675s228.579-108.742 228.579-239.675z" fill="#659ae8"/></svg>