<?xml version="1.0" standalone="no"?><!DOCTYPE svg PUBLIC "-//W3C//DTD SVG 1.1//EN" "http://www.w3.org/Graphics/SVG/1.1/DTD/svg11.dtd"><svg t="1693534518786" class="icon" viewBox="0 0 1024 1024" version="1.1" xmlns="http://www.w3.org/2000/svg" p-id="1119" xmlns:xlink="http://www.w3.org/1999/xlink" width="81" height="81"><path d="M514.3552 861.7472a118.4256 118.4256 0 0 1-87.7568-38.9632L106.9056 469.0944A118.2208 118.2208 0 0 1 101.0176 317.44l137.1136-177.5104a119.0912 119.0912 0 0 1 93.6448-46.08h365.1584a118.9888 118.9888 0 0 1 93.5936 46.08L927.6416 317.44A118.1184 118.1184 0 0 1 921.6 469.0944l-319.5392 353.6896a118.3232 118.3232 0 0 1-87.7056 38.9632z m-235.52-690.5344L141.568 348.8256a66.9696 66.9696 0 0 0 3.328 85.9136L464.5888 788.48a67.072 67.072 0 0 0 99.4816 0l319.6928-353.7408a66.9696 66.9696 0 0 0 3.3792-85.9136l-137.1648-177.6128a67.4304 67.4304 0 0 0-53.0432-26.112H331.776a67.5328 67.5328 0 0 0-53.0944 26.112z" fill="#659ae8" p-id="1120"></path><path d="M514.3552 636.6208a66.56 66.56 0 0 1-49.4592-21.9648L306.5344 439.4496a25.6 25.6 0 0 1 37.9904-34.304l158.3616 175.2064a15.36 15.36 0 0 0 22.8864 0L680.96 408.832a25.6 25.6 0 0 1 37.9904 34.304l-155.0336 171.52a66.56 66.56 0 0 1-49.5616 21.9648z" fill="#659ae8" p-id="1121"></path></svg>